<mxfile host="app.diagrams.net" modified="2022-11-07T08:27:17.182Z" agent="5.0 (Windows NT 10.0; Win64; x64) AppleWebKit/537.36 (KHTML, like Gecko) Chrome/106.0.0.0 Safari/537.36 Edg/106.0.1370.47" etag="NLYNMZR-Jh8Z-aOzZYwL" version="20.5.3" type="github">
  <diagram id="oUyiY9Sc8vn-t1fiyEVw" name="Page-1">
    <mxGraphModel dx="2418" dy="887" grid="1" gridSize="10" guides="1" tooltips="1" connect="1" arrows="1" fold="1" page="1" pageScale="1" pageWidth="800" pageHeight="800" math="0" shadow="0">
      <root>
        <mxCell id="0" />
        <mxCell id="1" parent="0" />
        <mxCell id="mErtqemCaZ8iUxpkTdMy-1" value="docker-compose" style="rounded=0;whiteSpace=wrap;html=1;verticalAlign=top;spacingTop=0;fillColor=#1ba1e2;fontColor=#ffffff;strokeColor=#006EAF;" parent="1" vertex="1">
          <mxGeometry x="-740" y="315" width="470" height="370" as="geometry" />
        </mxCell>
        <mxCell id="mErtqemCaZ8iUxpkTdMy-2" value="Asp.Net" style="rounded=0;whiteSpace=wrap;html=1;aspect=fixed;spacingTop=0;fillColor=#6a00ff;strokeColor=#3700CC;fontColor=#ffffff;" parent="1" vertex="1">
          <mxGeometry x="-700" y="445" width="120" height="120" as="geometry" />
        </mxCell>
        <mxCell id="mErtqemCaZ8iUxpkTdMy-3" value="&lt;div&gt;deeppavlov&lt;/div&gt;&lt;div&gt;flask&lt;br&gt;&lt;/div&gt;" style="whiteSpace=wrap;html=1;aspect=fixed;verticalAlign=middle;spacingTop=0;fillColor=#e3c800;strokeColor=#B09500;fontColor=#000000;" parent="1" vertex="1">
          <mxGeometry x="-420" y="445" width="120" height="120" as="geometry" />
        </mxCell>
        <mxCell id="mErtqemCaZ8iUxpkTdMy-4" value="telegram" style="rounded=0;whiteSpace=wrap;html=1;spacingTop=0;fillColor=#0050ef;fontColor=#ffffff;strokeColor=#001DBC;" parent="1" vertex="1">
          <mxGeometry x="-740" y="115" width="470" height="150" as="geometry" />
        </mxCell>
        <mxCell id="mErtqemCaZ8iUxpkTdMy-6" value="&lt;div&gt;Question&lt;/div&gt;&lt;div&gt;Answer&lt;/div&gt;" style="edgeStyle=orthogonalEdgeStyle;rounded=0;orthogonalLoop=1;jettySize=auto;html=1;entryX=1.006;entryY=0.551;entryDx=0;entryDy=0;entryPerimeter=0;startArrow=classic;startFill=1;spacingTop=0;" parent="1" source="mErtqemCaZ8iUxpkTdMy-5" target="mErtqemCaZ8iUxpkTdMy-4" edge="1">
          <mxGeometry relative="1" as="geometry" />
        </mxCell>
        <mxCell id="mErtqemCaZ8iUxpkTdMy-5" value="User" style="shape=umlActor;verticalLabelPosition=bottom;verticalAlign=top;html=1;outlineConnect=0;spacingTop=0;fillColor=#dae8fc;strokeColor=#6c8ebf;" parent="1" vertex="1">
          <mxGeometry x="-90" y="167" width="30" height="60" as="geometry" />
        </mxCell>
        <mxCell id="mErtqemCaZ8iUxpkTdMy-8" value="Poll" style="endArrow=classic;html=1;rounded=0;exitX=0.75;exitY=0;exitDx=0;exitDy=0;spacingTop=0;labelBackgroundColor=none;" parent="1" edge="1">
          <mxGeometry x="0.0556" y="-19" width="50" height="50" relative="1" as="geometry">
            <mxPoint x="-679" y="445" as="sourcePoint" />
            <mxPoint x="-679" y="265" as="targetPoint" />
            <mxPoint as="offset" />
          </mxGeometry>
        </mxCell>
        <mxCell id="mErtqemCaZ8iUxpkTdMy-9" value="" style="endArrow=classic;html=1;rounded=0;exitX=0.15;exitY=0.998;exitDx=0;exitDy=0;exitPerimeter=0;entryX=0.25;entryY=0;entryDx=0;entryDy=0;startArrow=classic;startFill=1;spacingTop=0;" parent="1" edge="1">
          <mxGeometry width="50" height="50" relative="1" as="geometry">
            <mxPoint x="-599.4999999999998" y="264.69999999999993" as="sourcePoint" />
            <mxPoint x="-600" y="445" as="targetPoint" />
          </mxGeometry>
        </mxCell>
        <mxCell id="mErtqemCaZ8iUxpkTdMy-10" value="&lt;div&gt;Answer&lt;/div&gt;&lt;div&gt;&lt;br&gt;&lt;/div&gt;&lt;div&gt;Update&lt;br&gt;&lt;/div&gt;" style="edgeLabel;html=1;align=center;verticalAlign=middle;resizable=0;points=[];spacingTop=0;labelBackgroundColor=none;" parent="mErtqemCaZ8iUxpkTdMy-9" vertex="1" connectable="0">
          <mxGeometry x="-0.1249" y="-1" relative="1" as="geometry">
            <mxPoint x="21" y="10" as="offset" />
          </mxGeometry>
        </mxCell>
        <mxCell id="mErtqemCaZ8iUxpkTdMy-12" value="User question" style="endArrow=classic;html=1;rounded=0;exitX=1;exitY=0.75;exitDx=0;exitDy=0;entryX=0;entryY=0.75;entryDx=0;entryDy=0;spacingTop=0;labelBackgroundColor=none;" parent="1" source="mErtqemCaZ8iUxpkTdMy-2" target="mErtqemCaZ8iUxpkTdMy-3" edge="1">
          <mxGeometry y="15" width="50" height="50" relative="1" as="geometry">
            <mxPoint x="-430" y="445" as="sourcePoint" />
            <mxPoint x="-380" y="395" as="targetPoint" />
            <mxPoint as="offset" />
          </mxGeometry>
        </mxCell>
        <mxCell id="mErtqemCaZ8iUxpkTdMy-13" value="Answer" style="endArrow=classic;rounded=0;exitX=0;exitY=0.25;exitDx=0;exitDy=0;entryX=1;entryY=0.25;entryDx=0;entryDy=0;spacingTop=0;labelBackgroundColor=none;fontColor=default;" parent="1" edge="1">
          <mxGeometry x="-0.0125" y="-15" width="50" height="50" relative="1" as="geometry">
            <mxPoint x="-421" y="475" as="sourcePoint" />
            <mxPoint x="-581" y="475" as="targetPoint" />
            <mxPoint as="offset" />
          </mxGeometry>
        </mxCell>
      </root>
    </mxGraphModel>
  </diagram>
</mxfile>
